<svg xmlns="http://www.w3.org/2000/svg" viewBox="0 0 137.848 101.619" height="384.07" width="521" xmlns:v="https://vecta.io/nano"><path d="M70.115 76.213v-25.4-33.867V8.48c0-3.281 1.905-6.271 4.868-7.673a8.45 8.45 0 0 1 9.022 1.164l50.8 42.333c1.931 1.614 3.043 3.995 3.043 6.509s-1.111 4.895-3.043 6.509l-50.8 42.333c-2.514 2.09-6.032 2.566-9.022 1.164s-4.868-4.392-4.868-7.673zM0 76.213v-25.4-33.867V8.48C0 5.199 1.905 2.209 4.868.807a8.45 8.45 0 0 1 9.022 1.164l50.8 42.333c1.931 1.614 3.043 3.995 3.043 6.509s-1.111 4.895-3.043 6.509l-50.8 42.333c-2.514 2.09-6.032 2.566-9.022 1.164S0 96.427 0 93.146z"/></svg>
