<?xml version="1.0" encoding="UTF-8" standalone="no"?>
<!-- Created with Inkscape (http://www.inkscape.org/) -->

<svg
   xmlns:dc="http://purl.org/dc/elements/1.1/"
   xmlns:cc="http://creativecommons.org/ns#"
   xmlns:rdf="http://www.w3.org/1999/02/22-rdf-syntax-ns#"
   xmlns:svg="http://www.w3.org/2000/svg"
   xmlns="http://www.w3.org/2000/svg"
   version="1.0"
   width="512"
   height="512"
   id="svg2">
  <metadata
     id="metadata3051">
    <rdf:RDF>
      <cc:Work
         rdf:about="">
        <dc:format>image/svg+xml</dc:format>
        <dc:type
           rdf:resource="http://purl.org/dc/dcmitype/StillImage" />
        <dc:title></dc:title>
      </cc:Work>
    </rdf:RDF>
  </metadata>
  <defs
     id="defs4" />
  <g
     id="layer1"
     style="fill:#8eb8da;fill-opacity:1;stroke:none">
    <g
       id="g2433"
       style="fill:#3f7cad;fill-opacity:1;stroke:none">
      <path
         d="m 77.59375,36.9375 c -1.371263,0.148806 -2.409316,1.30819 -2.40625,2.6875 l 0,432.75 c 0.0053,1.48205 1.205455,2.68215 2.6875,2.6875 l 111.59375,0 c 1.48205,-0.005 2.68215,-1.20545 2.6875,-2.6875 l 0,-147.46875 70.9375,0 c 55.46701,1.5e-4 98.36568,-12.24897 128.375,-37.125 30.19255,-25.0619 45.34333,-61.00431 45.34375,-107 -4.2e-4,-45.8044 -15.14824,-81.569892 -45.34375,-106.4375 C 361.46122,49.272387 318.56464,36.937935 263.09375,36.9375 l -185.21875,0 c -0.09369,-0.0049 -0.187564,-0.0049 -0.28125,0 z m 114.5625,86.25 59.0625,0 c 21.20769,3.5e-4 37.20153,5.10929 48.375,15 11.16745,9.88649 16.74971,23.81718 16.75,42.59375 -2.8e-4,18.77716 -5.60036,32.85636 -16.78125,42.9375 -11.17346,9.89126 -27.1361,14.96899 -48.34375,14.96875 l -59.0625,0 0,-115.5 z"
         transform="translate(3.387251e-6,0.00183105)"
         id="path3250"
         style="font-size:376.45492554px;font-style:normal;font-variant:normal;font-weight:bold;font-stretch:normal;text-align:start;line-height:125%;writing-mode:lr-tb;text-anchor:start;fill:#3f7cad;fill-opacity:1;stroke:none;font-family:Bitstream Vera Sans;-inkscape-font-specification:Bitstream Vera Sans Bold" />
      <path
         d="m 77.890345,39.630824 185.210855,0 c 55.07022,4.33e-4 97.29091,12.270519 126.66219,36.810295 29.56378,24.347341 44.34585,59.128681 44.34626,104.344141 -4.1e-4,45.40927 -14.78248,80.38385 -44.34626,104.92383 -29.37128,24.34713 -71.59197,36.5206 -126.66219,36.52045 l -73.62059,0 0,150.13963 -111.590265,0 0,-432.738346 m 111.590265,80.866706 0,120.8653 61.73695,0 c 21.6415,2.3e-4 38.35587,-5.21697 50.14316,-15.65162 11.78673,-10.62739 17.68024,-25.60269 17.68053,-44.92595 -2.9e-4,-19.32268 -5.8938,-34.20136 -17.68053,-44.6361 -11.78729,-10.43407 -28.50166,-15.65127 -50.14316,-15.65163 l -61.73695,0"
         id="text2464"
         style="font-size:593.60223389px;font-style:normal;font-variant:normal;font-weight:bold;font-stretch:normal;text-align:start;line-height:125%;writing-mode:lr-tb;text-anchor:start;fill:#3f7cad;fill-opacity:1;stroke:none;font-family:Bitstream Vera Sans;-inkscape-font-specification:Bitstream Vera Sans Bold" />
      <g
         transform="matrix(2.6456263,0,0,2.6456263,-118.41014,0.3663593)"
         id="symbols"
         style="fill:#3f7cad;fill-opacity:1;fill-rule:evenodd;stroke:none">
        <path
           d="m 93,166 c 0,7 6,7 6,0 l 3,-138 c 0,-8 -12,-8 -12,0 l 3,141 0,-3 z"
           id="rod"
           style="fill:#3f7cad;fill-opacity:1;stroke:none" />
        <g
           id="snake"
           style="fill:#3f7cad;fill-opacity:1;stroke:none">
          <path
             d="m 100,153 c 7,4 3,15 -3,15 2,-5 3,-9 3,-15 z m 1,-40 c 10,9 4,22 -3,26 -6,3 -6,7 -6,15 -9,-10 -4,-19 4,-24 5,-4 5,-10 5,-17 z m 1,-30 c 0,11 -17,14 -17,22 0,3 1,9 6,12 0,-11 9,-12 15,-18 7,-7 7,-19 -4,-28 0,4 0,8 0,12 z M 90,77 C 80,69 76,55 80,46 c 3,-10 20,-11 20,-3 0,8 -20,3 -13,16 l 3,5 0,13 z"
             id="body"
             style="fill:#3f7cad;fill-opacity:1;stroke:none" />
          <path
             d="m 95,43 c 7,-3 -7,-3 0,0 z"
             id="eye"
             style="fill:#3f7cad;fill-opacity:1;fill-rule:evenodd;stroke:none" />
        </g>
      </g>
    </g>
  </g>
  <path
     d="m 112.98063,195.77922 c -9.81016,-10.42972 -16.494397,-22.39906 -20.159648,-36.0995 -1.553602,-5.80726 -1.791704,-8.05448 -1.795766,-16.94861 -0.0043,-9.31953 0.16048,-10.73416 1.808229,-15.52778 3.75571,-10.92608 6.784061,-15.30613 13.651455,-19.74474 6.34182,-4.09892 11.94116,-5.70339 19.97705,-5.72434 6.12993,-0.016 7.23994,0.18064 10.74986,1.90422 4.61457,2.26603 6.73639,4.93717 7.2018,9.06631 0.76047,6.74689 -2.71571,9.73515 -16.72675,14.37893 -15.62476,5.17863 -19.46234,7.91846 -20.73517,14.80386 -0.95274,5.15387 0.79259,10.39936 6.8562,20.6058 l 4.8181,8.10997 -0.18349,15.39381 -0.18349,15.3938 -5.27838,-5.61173 z m 23.08216,-81.74027 c 3.23899,-1.89817 4.04697,-3.27342 3.0346,-5.16506 -1.28882,-2.40817 -9.87646,-2.69005 -12.16714,-0.39937 -1.52449,1.52449 -0.14926,4.11636 3.09165,5.82676 3.22577,1.70241 2.6453,1.72762 6.04089,-0.26233 z"
     id="path3825"
     style="fill:#ffde59;fill-opacity:1;stroke:none" />
  <path
     d="m 118.40771,305.04018 c -5.85752,-5.49308 -10.03672,-15.65033 -10.24918,-24.90987 -0.21206,-9.24272 2.17433,-12.27732 20.77926,-26.42333 11.50505,-8.74772 16.96266,-14.10773 19.94624,-19.58954 3.34951,-6.15416 3.89568,-9.95062 3.89568,-27.07936 l 0,-15.72622 3.81986,3.73632 c 13.35571,13.06365 19.3767,30.99721 15.58373,46.41629 -2.88712,11.73666 -10.39556,20.63183 -26.58116,31.49039 -17.08499,11.46195 -21.73745,17.24869 -23.87258,29.6928 l -0.81403,4.74432 -2.50782,-2.3518 z"
     id="path3829"
     style="fill:#ffde59;fill-opacity:1;stroke:none" />
  <path
     d=""
     id="path3831"
     style="fill:#ffde59;fill-opacity:1;stroke:none" />
  <path
     d="m 120.3942,399.39143 c -9.60013,-14.90009 -8.63254,-29.40715 2.86547,-42.96196 1.71664,-2.02371 5.91814,-5.74521 9.33667,-8.26999 6.57709,-4.85755 8.91569,-7.25082 11.59383,-11.86484 3.55454,-6.12392 5.82733,-16.9462 5.88368,-28.0162 l 0.0285,-5.59006 2.42976,2.73432 c 3.74291,4.21205 7.11298,11.49709 8.2006,17.72715 1.77586,10.17239 -1.1951,22.07687 -7.88819,31.60748 -3.92718,5.5921 -6.69189,8.12476 -14.06284,12.88249 -11.37993,7.34541 -14.7122,13.93064 -14.7122,29.0742 0,3.74117 -0.23071,6.79944 -0.51269,6.79615 -0.28197,-0.003 -1.70512,-1.85672 -3.16254,-4.11874 l 0,0 z"
     id="path3833"
     style="fill:#ffde59;fill-opacity:1;stroke:none" />
  <path
     d="m 140.4753,442.8936 c 0,-0.19921 0.58933,-1.9887 1.30961,-3.97664 3.09128,-8.53169 5.51818,-20.75961 5.52342,-27.82971 l 0.003,-3.70794 1.77661,1.65721 c 0.97714,0.91146 2.55984,3.19526 3.51711,5.0751 4.13611,8.12222 0.90502,20.74641 -6.78503,26.50977 -2.2189,1.66296 -5.34447,2.99181 -5.34447,2.27221 z"
     id="path3835"
     style="fill:#ffde59;fill-opacity:1;stroke:none" />
  <path
     d="m 141.15897,442.30921 c 5e-5,-0.094 0.76629,-2.63177 1.70276,-5.63952 2.39561,-7.69421 4.44428,-18.73444 4.47781,-24.13083 l 0.0284,-4.57945 2.38518,2.70174 c 5.73674,6.49808 5.54495,17.32998 -0.45605,25.75761 -1.9591,2.75131 -8.13887,7.22427 -8.13815,5.89045 z"
     id="path3837"
     style="fill:#ffde59;fill-opacity:1;stroke:none" />
  <path
     d="m 124.6771,248.89695 c 0.002,-3.73123 -1.70669,-88.23524 -2.21649,-109.64052 l -0.18044,-7.57615 7.92503,-2.5276 c 13.25032,-4.22606 17.5561,-8.41357 16.89152,-16.42755 -0.39631,-4.77895 -2.87242,-8.49138 -7.24029,-10.85536 -3.91573,-2.11927 -10.36925,-3.457622 -15.09473,-3.130392 l -3.50523,0.242731 4.2e-4,-13.41522 c 2.3e-4,-7.378371 0.20301,-14.428127 0.45061,-15.666124 0.26889,-1.344458 1.7141,-3.549785 3.58878,-5.476312 3.87218,-3.979271 8.14111,-5.197551 13.90496,-3.968235 4.43708,0.946341 8.81047,4.957686 10.10088,9.264676 0.69792,2.329452 0.53347,17.717632 -0.88597,82.906296 -1.60574,73.74414 -1.83844,80.19191 -2.95573,81.90003 -2.18949,3.34728 -8.04234,9.13165 -13.60764,13.44844 -7.69793,5.97098 -7.17787,5.90421 -7.17568,0.92129 z"
     id="path3845"
     style="fill:#ffffff;fill-opacity:1;stroke:none" />
  <path
     d="m 126.4926,332.28093 c -0.24763,-9.06629 -0.45024,-20.90695 -0.45024,-26.31258 0,-11.42114 0.51488,-12.96726 6.39859,-19.21431 3.13162,-3.32501 12.65419,-10.69868 13.16146,-10.19141 0.10866,0.10866 -0.0988,12.12404 -0.46095,26.70086 -0.64559,25.98314 -0.69073,26.56687 -2.29998,29.74259 -2.19067,4.32306 -6.86764,9.42411 -11.83603,12.90924 l -4.06261,2.84976 -0.45024,-16.48415 z"
     id="path3847"
     style="fill:#ffffff;fill-opacity:1;stroke:none" />
  <path
     d="m 132.21692,450.12699 c -1.29172,-1.29172 -2.16693,-3.14349 -2.66544,-5.63952 -0.40822,-2.04397 -1.01722,-16.02071 -1.35332,-31.05943 -0.66059,-29.55719 -0.58173,-30.51265 2.94689,-35.70548 1.58552,-2.33331 5.63406,-5.66604 10.18027,-8.38035 l 2.63676,-1.57428 -0.40949,12.91817 c -0.22521,7.105 -0.59775,20.76223 -0.82785,30.34941 l -0.41837,17.43125 -2.5958,7.86114 c -1.42769,4.32364 -2.8072,8.38454 -3.06557,9.02424 -0.40568,1.00439 -0.1351,1.10878 1.98315,0.76503 2.76512,-0.44872 2.86671,-0.26786 1.42049,2.52882 -1.9678,3.8053 -4.94451,4.3682 -7.83172,1.481 l 0,0 z"
     id="path3849"
     style="fill:#ffffff;fill-opacity:1;stroke:none" />
  <path
     d="m 133.75849,450.92253 c -0.45573,-0.18489 -1.47863,-1.38795 -2.27312,-2.67346 -1.94596,-3.14862 -2.64213,-13.43243 -2.87219,-42.42809 -0.17391,-21.91727 -0.14186,-22.53768 1.30183,-25.20469 0.81407,-1.50387 2.65973,-3.84382 4.10147,-5.19989 2.45658,-2.31059 8.61409,-6.76273 9.35318,-6.76273 0.18332,0 0.19124,3.46062 0.0176,7.69026 -0.17365,4.22963 -0.59119,17.84138 -0.92787,30.24833 l -0.61216,22.55807 -2.7756,8.17092 c -1.52658,4.49401 -2.7756,8.41604 -2.7756,8.71562 0,0.29959 0.92283,0.54471 2.05074,0.54471 2.43358,0 2.48129,0.20966 0.63703,2.79968 -1.33467,1.87437 -3.11203,2.39863 -5.22531,1.54127 z"
     id="path3851"
     style="fill:#ffffff;fill-opacity:1;stroke:none" />
  <path
     d=""
     id="path3855"
     style="fill:#3f7cad;fill-opacity:1;stroke:none" />
  <path
     d=""
     id="path3857"
     style="fill:#3f7cad;fill-opacity:1;stroke:none" />
  <path
     d="m 115.9101,160.67503 c -6.80636,-11.55662 -7.96802,-16.86712 -4.83395,-22.0983 1.08698,-1.81431 7.82746,-6.33113 8.43809,-5.65439 0.23651,0.26211 0.89728,34.75937 0.66579,34.75937 -0.0788,0 -2.00028,-3.15301 -4.26993,-7.00668 z"
     id="path3859"
     style="fill:#3f7cad;fill-opacity:1;stroke:none" />
  <path
     d=""
     id="path3861"
     style="fill:#3f7cad;fill-opacity:1;stroke:#000000;stroke-width:0.68357813;stroke-miterlimit:4;stroke-opacity:1;stroke-dasharray:none" />
  <path
     d=""
     id="path3863"
     style="fill:#3f7cad;fill-opacity:1;stroke:#000000;stroke-width:0.68357813;stroke-miterlimit:4;stroke-opacity:1;stroke-dasharray:none" />
  <path
     d=""
     id="path3865"
     style="fill:#3f7cad;fill-opacity:1;stroke:#000000;stroke-width:0.68357813;stroke-miterlimit:4;stroke-opacity:1;stroke-dasharray:none" />
  <path
     d=""
     id="path3867"
     style="fill:#3f7cad;fill-opacity:1;stroke:#000000;stroke-width:0.68357813;stroke-miterlimit:4;stroke-opacity:1;stroke-dasharray:none" />
  <path
     d=""
     id="path3873"
     style="fill:#3f7cad;fill-opacity:1;stroke:#000000;stroke-width:0.68357813;stroke-miterlimit:4;stroke-opacity:1;stroke-dasharray:none" />
  <path
     d=""
     id="path3875"
     style="fill:#3f7cad;fill-opacity:1;stroke:#000000;stroke-width:0.68357813;stroke-miterlimit:4;stroke-opacity:1;stroke-dasharray:none" />
  <path
     d=""
     id="path3877"
     style="fill:#3f7cad;fill-opacity:1;stroke:#000000;stroke-width:0.68357813;stroke-miterlimit:4;stroke-opacity:1;stroke-dasharray:none" />
  <path
     d=""
     id="path3879"
     style="fill:#3f7cad;fill-opacity:1;stroke:#000000;stroke-width:0.68357813;stroke-miterlimit:4;stroke-opacity:1;stroke-dasharray:none" />
  <path
     d="m 130.59424,114.30531 c -4.97408,-2.74141 -5.39226,-5.76714 -0.94454,-6.83413 2.14524,-0.51464 6.61817,-0.24371 8.03001,0.48638 1.26908,0.65627 1.85456,2.0944 1.32949,3.2657 -0.40525,0.90402 -5.09114,4.13285 -5.9834,4.12288 -0.30485,-0.003 -1.39905,-0.47178 -2.43156,-1.04083 l 0,0 z"
     id="path3921"
     style="fill:#000000;fill-opacity:1;stroke:#ffde59;stroke-opacity:1" />
</svg>
